<svg xmlns="http://www.w3.org/2000/svg" viewBox="0 0 544.5 534.5"><defs><style>.cls-1{fill:#302858;}</style></defs><title>Fichier 1</title><g id="Calque_2" data-name="Calque 2"><g id="Calque_2_-_copie" data-name="Calque 2 - copie"><circle class="cls-1" cx="21.25" cy="31.25" r="8.25"/><circle class="cls-1" cx="47.67" cy="31.25" r="8.25"/><circle class="cls-1" cx="74.08" cy="31.25" r="8.25"/><circle class="cls-1" cx="100.5" cy="31.25" r="8.25"/><circle class="cls-1" cx="126.92" cy="31.25" r="8.25"/><circle class="cls-1" cx="153.33" cy="31.25" r="8.25"/><circle class="cls-1" cx="179.75" cy="31.25" r="8.25"/><circle class="cls-1" cx="206.17" cy="31.25" r="8.25"/><circle class="cls-1" cx="232.58" cy="31.25" r="8.25"/><circle class="cls-1" cx="259" cy="31.25" r="8.25"/><circle class="cls-1" cx="285.42" cy="31.25" r="8.25"/><circle class="cls-1" cx="311.83" cy="31.25" r="8.25"/><circle class="cls-1" cx="338.25" cy="31.25" r="8.25"/><circle class="cls-1" cx="364.17" cy="31.25" r="8.25"/><circle class="cls-1" cx="390.58" cy="31.25" r="8.25"/><circle class="cls-1" cx="417" cy="31.25" r="8.25"/><circle class="cls-1" cx="443.42" cy="31.25" r="8.25"/><circle class="cls-1" cx="469.83" cy="31.25" r="8.25"/><circle class="cls-1" cx="496.25" cy="31.25" r="8.25"/><circle class="cls-1" cx="522.25" cy="31.25" r="8.25"/><circle class="cls-1" cx="61.08" cy="54.25" r="8.25"/><circle class="cls-1" cx="87.5" cy="54.25" r="8.25"/><circle class="cls-1" cx="113.92" cy="54.25" r="8.25"/><circle class="cls-1" cx="140.33" cy="54.25" r="8.25"/><circle class="cls-1" cx="166.75" cy="54.25" r="8.25"/><circle class="cls-1" cx="193.17" cy="54.25" r="8.25"/><circle class="cls-1" cx="219.58" cy="54.25" r="8.25"/><circle class="cls-1" cx="246" cy="54.25" r="8.25"/><circle class="cls-1" cx="272.42" cy="54.25" r="8.25"/><circle class="cls-1" cx="298.83" cy="54.25" r="8.25"/><circle class="cls-1" cx="325.25" cy="54.25" r="8.25"/><circle class="cls-1" cx="351.17" cy="54.25" r="8.25"/><circle class="cls-1" cx="377.58" cy="54.25" r="8.25"/><circle class="cls-1" cx="404" cy="54.25" r="8.25"/><circle class="cls-1" cx="430.42" cy="54.25" r="8.25"/><circle class="cls-1" cx="456.83" cy="54.25" r="8.25"/><circle class="cls-1" cx="483.25" cy="54.25" r="8.25"/><circle class="cls-1" cx="509.25" cy="54.25" r="8.25"/><circle class="cls-1" cx="536.25" cy="54.25" r="8.25"/><circle class="cls-1" cx="8.25" cy="8.25" r="8.25"/><circle class="cls-1" cx="34.67" cy="8.25" r="8.25"/><circle class="cls-1" cx="61.08" cy="8.25" r="8.25"/><circle class="cls-1" cx="87.5" cy="8.25" r="8.25"/><circle class="cls-1" cx="113.92" cy="8.25" r="8.25"/><circle class="cls-1" cx="140.33" cy="8.25" r="8.25"/><circle class="cls-1" cx="166.75" cy="8.25" r="8.25"/><circle class="cls-1" cx="193.17" cy="8.25" r="8.25"/><circle class="cls-1" cx="219.58" cy="8.25" r="8.25"/><circle class="cls-1" cx="246" cy="8.25" r="8.25"/><circle class="cls-1" cx="272.42" cy="8.25" r="8.25"/><circle class="cls-1" cx="298.83" cy="8.25" r="8.25"/><circle class="cls-1" cx="325.25" cy="8.25" r="8.25"/><circle class="cls-1" cx="351.17" cy="8.25" r="8.25"/><circle class="cls-1" cx="377.58" cy="8.25" r="8.25"/><circle class="cls-1" cx="404" cy="8.25" r="8.25"/><circle class="cls-1" cx="430.42" cy="8.25" r="8.25"/><circle class="cls-1" cx="456.83" cy="8.25" r="8.25"/><circle class="cls-1" cx="483.25" cy="8.25" r="8.25"/><circle class="cls-1" cx="509.25" cy="8.25" r="8.25"/><circle class="cls-1" cx="536.25" cy="8.25" r="8.25"/><circle class="cls-1" cx="87.5" cy="99.25" r="8.25"/><circle class="cls-1" cx="113.92" cy="99.25" r="8.25"/><circle class="cls-1" cx="140.33" cy="99.25" r="8.25"/><circle class="cls-1" cx="166.75" cy="99.25" r="8.25"/><circle class="cls-1" cx="193.17" cy="99.25" r="8.25"/><circle class="cls-1" cx="219.58" cy="99.25" r="8.25"/><circle class="cls-1" cx="246" cy="99.25" r="8.25"/><circle class="cls-1" cx="272.42" cy="99.25" r="8.25"/><circle class="cls-1" cx="298.83" cy="99.25" r="8.25"/><circle class="cls-1" cx="325.25" cy="99.25" r="8.25"/><circle class="cls-1" cx="351.17" cy="99.25" r="8.25"/><circle class="cls-1" cx="377.58" cy="99.25" r="8.25"/><circle class="cls-1" cx="404" cy="99.25" r="8.25"/><circle class="cls-1" cx="430.42" cy="99.25" r="8.25"/><circle class="cls-1" cx="456.83" cy="99.25" r="8.25"/><circle class="cls-1" cx="483.25" cy="99.25" r="8.25"/><circle class="cls-1" cx="509.25" cy="99.25" r="8.25"/><circle class="cls-1" cx="87.5" cy="144.25" r="8.25"/><circle class="cls-1" cx="113.92" cy="144.25" r="8.25"/><circle class="cls-1" cx="140.33" cy="144.25" r="8.25"/><circle class="cls-1" cx="166.75" cy="144.25" r="8.25"/><circle class="cls-1" cx="193.17" cy="144.25" r="8.25"/><circle class="cls-1" cx="219.58" cy="144.25" r="8.25"/><circle class="cls-1" cx="246" cy="144.25" r="8.25"/><circle class="cls-1" cx="272.42" cy="144.25" r="8.25"/><circle class="cls-1" cx="298.83" cy="144.25" r="8.25"/><circle class="cls-1" cx="325.25" cy="144.25" r="8.25"/><circle class="cls-1" cx="351.17" cy="144.25" r="8.25"/><circle class="cls-1" cx="377.58" cy="144.25" r="8.25"/><circle class="cls-1" cx="404" cy="144.25" r="8.25"/><circle class="cls-1" cx="430.42" cy="144.25" r="8.25"/><circle class="cls-1" cx="456.83" cy="144.25" r="8.25"/><circle class="cls-1" cx="87.5" cy="189.25" r="8.25"/><circle class="cls-1" cx="113.92" cy="189.25" r="8.25"/><circle class="cls-1" cx="140.33" cy="189.25" r="8.25"/><circle class="cls-1" cx="166.75" cy="189.25" r="8.25"/><circle class="cls-1" cx="193.17" cy="189.25" r="8.25"/><circle class="cls-1" cx="219.58" cy="189.25" r="8.25"/><circle class="cls-1" cx="246" cy="189.25" r="8.25"/><circle class="cls-1" cx="272.42" cy="189.25" r="8.25"/><circle class="cls-1" cx="298.83" cy="189.25" r="8.25"/><circle class="cls-1" cx="325.25" cy="189.25" r="8.25"/><circle class="cls-1" cx="351.17" cy="189.25" r="8.25"/><circle class="cls-1" cx="377.58" cy="189.25" r="8.25"/><circle class="cls-1" cx="404" cy="189.25" r="8.25"/><circle class="cls-1" cx="140.33" cy="234.25" r="8.25"/><circle class="cls-1" cx="166.75" cy="234.25" r="8.25"/><circle class="cls-1" cx="193.17" cy="234.25" r="8.25"/><circle class="cls-1" cx="219.58" cy="234.25" r="8.25"/><circle class="cls-1" cx="246" cy="234.25" r="8.25"/><circle class="cls-1" cx="272.42" cy="234.25" r="8.25"/><circle class="cls-1" cx="298.83" cy="234.25" r="8.25"/><circle class="cls-1" cx="325.25" cy="234.25" r="8.25"/><circle class="cls-1" cx="351.17" cy="234.25" r="8.25"/><circle class="cls-1" cx="377.58" cy="234.25" r="8.25"/><circle class="cls-1" cx="166.75" cy="279.25" r="8.25"/><circle class="cls-1" cx="193.17" cy="279.25" r="8.25"/><circle class="cls-1" cx="219.58" cy="279.25" r="8.25"/><circle class="cls-1" cx="246" cy="279.25" r="8.25"/><circle class="cls-1" cx="377.58" cy="279.25" r="8.25"/><circle class="cls-1" cx="404" cy="279.25" r="8.25"/><circle class="cls-1" cx="219.58" cy="324.25" r="8.25"/><circle class="cls-1" cx="246" cy="324.25" r="8.25"/><circle class="cls-1" cx="272.42" cy="324.25" r="8.25"/><circle class="cls-1" cx="298.83" cy="324.25" r="8.25"/><circle class="cls-1" cx="325.25" cy="324.25" r="8.25"/><circle class="cls-1" cx="404" cy="324.25" r="8.25"/><circle class="cls-1" cx="430.42" cy="324.25" r="8.25"/><circle class="cls-1" cx="456.83" cy="324.25" r="8.25"/><circle class="cls-1" cx="483.25" cy="324.25" r="8.25"/><circle class="cls-1" cx="509.25" cy="324.25" r="8.25"/><circle class="cls-1" cx="351.17" cy="369.25" r="8.25"/><circle class="cls-1" cx="430.42" cy="369.25" r="8.25"/><circle class="cls-1" cx="456.83" cy="369.25" r="8.25"/><circle class="cls-1" cx="483.25" cy="369.25" r="8.25"/><circle class="cls-1" cx="509.25" cy="369.25" r="8.25"/><circle class="cls-1" cx="404" cy="414.25" r="8.25"/><circle class="cls-1" cx="430.42" cy="414.25" r="8.25"/><circle class="cls-1" cx="456.83" cy="414.25" r="8.25"/><circle class="cls-1" cx="483.25" cy="414.25" r="8.25"/><circle class="cls-1" cx="509.25" cy="414.25" r="8.25"/><circle class="cls-1" cx="536.25" cy="414.25" r="8.25"/><circle class="cls-1" cx="377.58" cy="459.25" r="8.25"/><circle class="cls-1" cx="404" cy="459.25" r="8.25"/><circle class="cls-1" cx="430.42" cy="459.25" r="8.25"/><circle class="cls-1" cx="456.83" cy="459.25" r="8.25"/><circle class="cls-1" cx="483.25" cy="459.25" r="8.25"/><circle class="cls-1" cx="509.25" cy="459.25" r="8.25"/><circle class="cls-1" cx="536.25" cy="459.25" r="8.25"/><circle class="cls-1" cx="377.58" cy="504.25" r="8.25"/><circle class="cls-1" cx="404" cy="504.25" r="8.25"/><circle class="cls-1" cx="430.42" cy="504.25" r="8.25"/><circle class="cls-1" cx="456.83" cy="504.25" r="8.25"/><circle class="cls-1" cx="483.25" cy="504.25" r="8.25"/><circle class="cls-1" cx="509.25" cy="504.25" r="8.25"/><circle class="cls-1" cx="536.25" cy="504.25" r="8.25"/><circle class="cls-1" cx="74.08" cy="76.25" r="8.25"/><circle class="cls-1" cx="100.5" cy="76.25" r="8.25"/><circle class="cls-1" cx="126.92" cy="76.25" r="8.25"/><circle class="cls-1" cx="153.33" cy="76.25" r="8.25"/><circle class="cls-1" cx="179.75" cy="76.25" r="8.25"/><circle class="cls-1" cx="206.17" cy="76.25" r="8.25"/><circle class="cls-1" cx="232.58" cy="76.25" r="8.25"/><circle class="cls-1" cx="259" cy="76.25" r="8.25"/><circle class="cls-1" cx="285.42" cy="76.25" r="8.25"/><circle class="cls-1" cx="311.83" cy="76.25" r="8.25"/><circle class="cls-1" cx="338.25" cy="76.25" r="8.25"/><circle class="cls-1" cx="364.17" cy="76.25" r="8.25"/><circle class="cls-1" cx="390.58" cy="76.25" r="8.25"/><circle class="cls-1" cx="417" cy="76.25" r="8.25"/><circle class="cls-1" cx="443.42" cy="76.25" r="8.25"/><circle class="cls-1" cx="469.83" cy="76.25" r="8.25"/><circle class="cls-1" cx="496.25" cy="76.25" r="8.25"/><circle class="cls-1" cx="74.08" cy="121.25" r="8.25"/><circle class="cls-1" cx="100.5" cy="121.25" r="8.25"/><circle class="cls-1" cx="126.92" cy="121.25" r="8.25"/><circle class="cls-1" cx="153.33" cy="121.25" r="8.25"/><circle class="cls-1" cx="179.75" cy="121.25" r="8.25"/><circle class="cls-1" cx="206.17" cy="121.25" r="8.25"/><circle class="cls-1" cx="232.58" cy="121.25" r="8.25"/><circle class="cls-1" cx="259" cy="121.25" r="8.25"/><circle class="cls-1" cx="285.42" cy="121.25" r="8.25"/><circle class="cls-1" cx="311.83" cy="121.25" r="8.25"/><circle class="cls-1" cx="338.25" cy="121.25" r="8.25"/><circle class="cls-1" cx="364.17" cy="121.25" r="8.25"/><circle class="cls-1" cx="390.58" cy="121.25" r="8.25"/><circle class="cls-1" cx="417" cy="121.25" r="8.25"/><circle class="cls-1" cx="443.42" cy="121.25" r="8.25"/><circle class="cls-1" cx="469.83" cy="121.25" r="8.25"/><circle class="cls-1" cx="496.25" cy="121.25" r="8.25"/><circle class="cls-1" cx="74.08" cy="166.25" r="8.25"/><circle class="cls-1" cx="100.5" cy="166.25" r="8.25"/><circle class="cls-1" cx="126.92" cy="166.25" r="8.25"/><circle class="cls-1" cx="153.33" cy="166.25" r="8.25"/><circle class="cls-1" cx="179.75" cy="166.25" r="8.25"/><circle class="cls-1" cx="206.17" cy="166.25" r="8.25"/><circle class="cls-1" cx="232.58" cy="166.25" r="8.25"/><circle class="cls-1" cx="259" cy="166.25" r="8.25"/><circle class="cls-1" cx="285.42" cy="166.25" r="8.25"/><circle class="cls-1" cx="311.83" cy="166.25" r="8.25"/><circle class="cls-1" cx="338.25" cy="166.25" r="8.25"/><circle class="cls-1" cx="364.17" cy="166.25" r="8.25"/><circle class="cls-1" cx="390.58" cy="166.25" r="8.25"/><circle class="cls-1" cx="417" cy="166.25" r="8.25"/><circle class="cls-1" cx="126.92" cy="211.25" r="8.25"/><circle class="cls-1" cx="153.33" cy="211.25" r="8.25"/><circle class="cls-1" cx="179.75" cy="211.25" r="8.25"/><circle class="cls-1" cx="206.17" cy="211.25" r="8.25"/><circle class="cls-1" cx="232.58" cy="211.25" r="8.25"/><circle class="cls-1" cx="259" cy="211.25" r="8.25"/><circle class="cls-1" cx="285.42" cy="211.25" r="8.25"/><circle class="cls-1" cx="311.83" cy="211.25" r="8.25"/><circle class="cls-1" cx="338.25" cy="211.25" r="8.25"/><circle class="cls-1" cx="364.17" cy="211.25" r="8.25"/><circle class="cls-1" cx="390.58" cy="211.25" r="8.25"/><circle class="cls-1" cx="153.33" cy="256.25" r="8.25"/><circle class="cls-1" cx="179.75" cy="256.25" r="8.25"/><circle class="cls-1" cx="206.17" cy="256.25" r="8.25"/><circle class="cls-1" cx="232.58" cy="256.25" r="8.25"/><circle class="cls-1" cx="259" cy="256.25" r="8.25"/><circle class="cls-1" cx="285.42" cy="256.25" r="8.25"/><circle class="cls-1" cx="364.17" cy="256.25" r="8.25"/><circle class="cls-1" cx="390.58" cy="256.25" r="8.25"/><circle class="cls-1" cx="206.17" cy="301.25" r="8.25"/><circle class="cls-1" cx="232.58" cy="301.25" r="8.25"/><circle class="cls-1" cx="259" cy="301.25" r="8.25"/><circle class="cls-1" cx="311.83" cy="301.25" r="8.25"/><circle class="cls-1" cx="338.25" cy="301.25" r="8.25"/><circle class="cls-1" cx="390.58" cy="301.25" r="8.25"/><circle class="cls-1" cx="417" cy="301.25" r="8.25"/><circle class="cls-1" cx="443.42" cy="301.25" r="8.25"/><circle class="cls-1" cx="285.42" cy="346.25" r="8.25"/><circle class="cls-1" cx="311.83" cy="346.25" r="8.25"/><circle class="cls-1" cx="338.25" cy="346.25" r="8.25"/><circle class="cls-1" cx="364.17" cy="346.25" r="8.25"/><circle class="cls-1" cx="522.25" cy="346.25" r="8.25"/><circle class="cls-1" cx="364.17" cy="391.25" r="8.25"/><circle class="cls-1" cx="390.58" cy="391.25" r="8.25"/><circle class="cls-1" cx="417" cy="391.25" r="8.25"/><circle class="cls-1" cx="443.42" cy="391.25" r="8.25"/><circle class="cls-1" cx="469.83" cy="391.25" r="8.25"/><circle class="cls-1" cx="496.25" cy="391.25" r="8.25"/><circle class="cls-1" cx="522.25" cy="391.25" r="8.25"/><circle class="cls-1" cx="390.58" cy="436.25" r="8.25"/><circle class="cls-1" cx="417" cy="436.25" r="8.25"/><circle class="cls-1" cx="443.42" cy="436.25" r="8.25"/><circle class="cls-1" cx="469.83" cy="436.25" r="8.25"/><circle class="cls-1" cx="496.25" cy="436.25" r="8.25"/><circle class="cls-1" cx="522.25" cy="436.25" r="8.25"/><circle class="cls-1" cx="390.58" cy="481.25" r="8.25"/><circle class="cls-1" cx="417" cy="481.25" r="8.25"/><circle class="cls-1" cx="443.42" cy="481.25" r="8.25"/><circle class="cls-1" cx="469.83" cy="481.25" r="8.25"/><circle class="cls-1" cx="496.25" cy="481.25" r="8.25"/><circle class="cls-1" cx="522.25" cy="481.25" r="8.25"/><circle class="cls-1" cx="390.58" cy="526.25" r="8.25"/><circle class="cls-1" cx="417" cy="526.25" r="8.25"/><circle class="cls-1" cx="443.42" cy="526.25" r="8.25"/><circle class="cls-1" cx="469.83" cy="526.25" r="8.25"/><circle class="cls-1" cx="496.25" cy="526.25" r="8.25"/><circle class="cls-1" cx="522.25" cy="526.25" r="8.25"/></g></g></svg>